<svg width="20" height="20" viewBox="0 0 20 20" fill="none" xmlns="http://www.w3.org/2000/svg">
<g clip-path="url(#clip0_1827_34)">
<path d="M11.6693 14.998C11.3855 14.998 11.1037 15.0462 10.836 15.1405V14.998C10.836 14.777 10.9238 14.565 11.0801 14.4088C11.2364 14.2525 11.4483 14.1647 11.6693 14.1647C11.7877 14.1639 11.9049 14.1888 12.0128 14.2375C12.1207 14.2863 12.2167 14.3578 12.2943 14.4472C12.3658 14.5323 12.4535 14.6022 12.5524 14.6529C12.6513 14.7036 12.7593 14.734 12.8701 14.7424C12.981 14.7507 13.0923 14.7368 13.1977 14.7014C13.303 14.6661 13.4002 14.61 13.4836 14.5366C13.567 14.4631 13.6348 14.3737 13.6831 14.2736C13.7314 14.1735 13.7592 14.0648 13.7649 13.9538C13.7705 13.8429 13.7539 13.7319 13.7161 13.6274C13.6782 13.5229 13.6198 13.4271 13.5443 13.3455C13.2085 12.9647 12.7647 12.6952 12.272 12.5728C11.7793 12.4504 11.2609 12.481 10.786 12.6604C10.311 12.8398 9.90194 13.1595 9.61315 13.5771C9.32437 13.9947 9.16957 14.4903 9.16935 14.998V17.498C9.16953 18.0408 9.34635 18.5688 9.6731 19.0022C9.99985 19.4356 10.4588 19.7509 10.9805 19.9004C11.5023 20.05 12.0586 20.0256 12.5653 19.8311C13.072 19.6366 13.5017 19.2824 13.7893 18.8222C14.0214 18.4486 14.1526 18.0212 14.1703 17.5817C14.188 17.1423 14.0915 16.7057 13.8902 16.3147C13.6791 15.9104 13.3595 15.5729 12.9671 15.3403C12.5748 15.1077 12.1254 14.9892 11.6693 14.998ZM12.3768 17.9388C12.3001 18.062 12.1926 18.1629 12.0648 18.2317C11.9371 18.3005 11.7936 18.3347 11.6486 18.3311C11.5036 18.3274 11.362 18.2859 11.2379 18.2108C11.1139 18.1356 11.0115 18.0294 10.9411 17.9025C10.8707 17.7757 10.8346 17.6327 10.8364 17.4876C10.8382 17.3426 10.8778 17.2005 10.9514 17.0755C11.025 16.9504 11.1299 16.8467 11.2558 16.7747C11.3817 16.7027 11.5243 16.6647 11.6693 16.6647C11.8127 16.6568 11.9554 16.688 12.0825 16.7547C12.2095 16.8215 12.3162 16.9214 12.391 17.0438C12.4679 17.181 12.5071 17.336 12.5046 17.4933C12.5021 17.6505 12.4581 17.8042 12.3768 17.9388ZM17.5027 12.498C16.8396 12.498 16.2038 12.7614 15.7349 13.2302C15.2661 13.6991 15.0027 14.335 15.0027 14.998V17.498C15.0027 18.161 15.2661 18.7969 15.7349 19.2658C16.2038 19.7346 16.8396 19.998 17.5027 19.998C18.1657 19.998 18.8016 19.7346 19.2704 19.2658C19.7393 18.7969 20.0027 18.161 20.0027 17.498V14.998C20.0027 14.335 19.7393 13.6991 19.2704 13.2302C18.8016 12.7614 18.1657 12.498 17.5027 12.498ZM18.336 17.498C18.336 17.719 18.2482 17.931 18.0919 18.0873C17.9357 18.2435 17.7237 18.3313 17.5027 18.3313C17.2817 18.3313 17.0697 18.2435 16.9134 18.0873C16.7571 17.931 16.6693 17.719 16.6693 17.498V14.998C16.6693 14.777 16.7571 14.565 16.9134 14.4088C17.0697 14.2525 17.2817 14.1647 17.5027 14.1647C17.7237 14.1647 17.9357 14.2525 18.0919 14.4088C18.2482 14.565 18.336 14.777 18.336 14.998V17.498ZM10.0027 10.8313H6.66935C6.44834 10.8313 6.23637 10.7435 6.08009 10.5873C5.92381 10.431 5.83602 10.219 5.83602 9.99801C5.83602 9.77699 5.92381 9.56503 6.08009 9.40875C6.23637 9.25247 6.44834 9.16467 6.66935 9.16467H9.16935V5.83134C9.16935 5.61033 9.25715 5.39836 9.41343 5.24208C9.56971 5.0858 9.78167 4.99801 10.0027 4.99801C10.2237 4.99801 10.4357 5.0858 10.5919 5.24208C10.7482 5.39836 10.836 5.61033 10.836 5.83134V9.99801C10.836 10.219 10.7482 10.431 10.5919 10.5873C10.4357 10.7435 10.2237 10.8313 10.0027 10.8313ZM20.0027 2.49801V4.99801C20.0027 5.66105 19.7393 6.29693 19.2704 6.76577C18.8016 7.23461 18.1657 7.49801 17.5027 7.49801H15.0027C14.7817 7.49801 14.5697 7.41021 14.4134 7.25393C14.2571 7.09765 14.1693 6.88569 14.1693 6.66467C14.1693 6.44366 14.2571 6.2317 14.4134 6.07542C14.5697 5.91914 14.7817 5.83134 15.0027 5.83134H17.2002C16.5334 4.68061 15.6006 3.70637 14.48 2.99017C13.3593 2.27396 12.0834 1.83664 10.7591 1.71481C9.4347 1.59298 8.10042 1.79019 6.86792 2.28993C5.63542 2.78966 4.54057 3.57739 3.67503 4.58715C2.80949 5.59691 2.19844 6.79933 1.89304 8.09375C1.58764 9.38817 1.59677 10.7369 1.91967 12.0271C2.24257 13.3172 2.86985 14.5113 3.74898 15.5092C4.62812 16.5072 5.73353 17.28 6.97268 17.763C7.17867 17.8435 7.34426 18.0024 7.43302 18.205C7.52179 18.4075 7.52646 18.637 7.44602 18.843C7.36557 19.049 7.20659 19.2146 7.00405 19.3033C6.80151 19.3921 6.572 19.3968 6.36602 19.3163C4.90156 18.7451 3.5924 17.8367 2.54475 16.6648C1.4971 15.4929 0.740473 14.0905 0.336266 12.5714C-0.0679423 11.0524 -0.108348 9.45941 0.218328 7.92181C0.545004 6.3842 1.22956 4.94527 2.21645 3.72176C3.20334 2.49825 4.46476 1.52462 5.89837 0.879876C7.33199 0.235133 8.8974 -0.0625637 10.4676 0.0109397C12.0378 0.0844431 13.5686 0.527076 14.9357 1.30293C16.3028 2.07877 17.4677 3.16598 18.336 4.47634V2.49801C18.336 2.27699 18.4238 2.06503 18.5801 1.90875C18.7364 1.75247 18.9483 1.66467 19.1693 1.66467C19.3904 1.66467 19.6023 1.75247 19.7586 1.90875C19.9149 2.06503 20.0027 2.27699 20.0027 2.49801Z" fill="#646464"/>
</g>
<defs>
<clipPath id="clip0_1827_34">
<rect width="20" height="19.998" fill="white"/>
</clipPath>
</defs>
</svg>
