<svg width="15" height="15" viewBox="0 0 15 15" fill="none" xmlns="http://www.w3.org/2000/svg">
<g clip-path="url(#clip0_1834_141)">
<path d="M7.5 0C3.35769 0 0 3.35769 0 7.5C0 11.6423 3.35769 15 7.5 15C11.6423 15 15 11.6423 15 7.5C15 3.35769 11.6423 0 7.5 0ZM11.6873 5.36943L6.21462 10.8415C6.07731 10.9783 5.85519 10.9783 5.71789 10.8415L5.60769 10.7314L2.59615 7.69962C2.45884 7.56231 2.45884 7.33962 2.59615 7.20231L3.34269 6.45635C3.48 6.31904 3.7027 6.31904 3.84 6.45635L5.96827 8.6002L10.4429 4.12558C10.5802 3.98827 10.8029 3.98827 10.9402 4.12558L11.6868 4.87211C11.8246 5.00884 11.8246 5.23154 11.6873 5.36943Z" fill="#21A1FC"/>
</g>
<defs>
<clipPath id="clip0_1834_141">
<rect width="15" height="15" fill="white"/>
</clipPath>
</defs>
</svg>
