<svg width="100" height="67" viewBox="0 0 100 67" fill="none" xmlns="http://www.w3.org/2000/svg">
<path d="M92.0469 22.9636L94.7365 24.7193L99.99 16.6704L74.4513 0L49.9716 16.5735L25.4742 0.000806632L17.4974 5.20786V2.7393H8.73488V10.9275L-0.0100098 16.6352L5.24351 24.684L7.93392 22.9275V59.4722H3.65359V66.6424H96.3272V59.4722H92.0469V22.9636Z" fill="url(#paint0_linear_16_2427)"/>
<path d="M3.65381 25.5235L25.4279 11.3112L48.4131 26.314" stroke="white" stroke-width="2" stroke-miterlimit="10"/>
<path d="M23.0984 35.8174H15.877V52.3821H23.0984V35.8174Z" fill="white"/>
<path d="M19.4875 35.4802V52.7329" stroke="url(#paint1_linear_16_2427)" stroke-width="2" stroke-miterlimit="10"/>
<path d="M15.0901 40.1346H23.8846" stroke="url(#paint2_linear_16_2427)" stroke-width="2" stroke-miterlimit="10"/>
<path d="M15.0901 46.938H23.8846" stroke="url(#paint3_linear_16_2427)" stroke-width="2" stroke-miterlimit="10"/>
<path d="M35.0298 35.8174H27.8083V52.3821H35.0298V35.8174Z" fill="white"/>
<path d="M31.4192 35.4802V52.7329" stroke="url(#paint4_linear_16_2427)" stroke-width="2" stroke-miterlimit="10"/>
<path d="M27.0217 40.1346H35.8171" stroke="url(#paint5_linear_16_2427)" stroke-width="2" stroke-miterlimit="10"/>
<path d="M27.0217 46.938H35.8171" stroke="url(#paint6_linear_16_2427)" stroke-width="2" stroke-miterlimit="10"/>
<path d="M29.4999 22.3773C29.4999 24.6119 27.6881 26.4237 25.4534 26.4237C23.2188 26.4237 21.407 24.6119 21.407 22.3773C21.407 20.1426 23.2188 18.3308 25.4534 18.3308C27.6881 18.3308 29.4999 20.1426 29.4999 22.3773Z" fill="white"/>
<path d="M20.9998 22.3773H29.9921" stroke="url(#paint7_linear_16_2427)" stroke-width="2" stroke-miterlimit="10"/>
<path d="M25.4966 17.8815V26.8731" stroke="url(#paint8_linear_16_2427)" stroke-width="2" stroke-miterlimit="10"/>
<path d="M51.7085 26.1883L74.5014 11.3112L96.3276 25.5571" stroke="white" stroke-width="2" stroke-miterlimit="10"/>
<path d="M78.5741 22.3773C78.5741 24.6119 76.7623 26.4237 74.5277 26.4237C72.293 26.4237 70.4812 24.6119 70.4812 22.3773C70.4812 20.1426 72.293 18.3308 74.5277 18.3308C76.7623 18.33 78.5741 20.1426 78.5741 22.3773Z" fill="white"/>
<path d="M70.074 22.3773H79.0656" stroke="url(#paint9_linear_16_2427)" stroke-width="2" stroke-miterlimit="10"/>
<path d="M74.5698 17.8815V26.8731" stroke="url(#paint10_linear_16_2427)" stroke-width="2" stroke-miterlimit="10"/>
<path d="M56.1733 36.5311H44.6099V56.9171H56.1733V36.5311Z" fill="white"/>
<path d="M55.5823 46.7242C55.5823 47.1912 55.2034 47.57 54.7364 47.57C54.2695 47.57 53.8906 47.1912 53.8906 46.7242C53.8906 46.2573 54.2695 45.8784 54.7364 45.8784C55.2034 45.8784 55.5823 46.2573 55.5823 46.7242Z" fill="url(#paint11_linear_16_2427)"/>
<path d="M72.5882 35.8174H65.3667V52.3821H72.5882V35.8174Z" fill="white"/>
<path d="M68.9775 35.4802V52.7329" stroke="url(#paint12_linear_16_2427)" stroke-width="2" stroke-miterlimit="10"/>
<path d="M64.5801 40.1346H73.3754" stroke="url(#paint13_linear_16_2427)" stroke-width="2" stroke-miterlimit="10"/>
<path d="M64.5801 46.938H73.3754" stroke="url(#paint14_linear_16_2427)" stroke-width="2" stroke-miterlimit="10"/>
<path d="M84.5193 35.8174H77.2979V52.3821H84.5193V35.8174Z" fill="white"/>
<path d="M80.9089 35.4802V52.7329" stroke="url(#paint15_linear_16_2427)" stroke-width="2" stroke-miterlimit="10"/>
<path d="M76.5115 40.1346H85.3068" stroke="url(#paint16_linear_16_2427)" stroke-width="2" stroke-miterlimit="10"/>
<path d="M76.5115 46.938H85.3068" stroke="url(#paint17_linear_16_2427)" stroke-width="2" stroke-miterlimit="10"/>
<defs>
<linearGradient id="paint0_linear_16_2427" x1="-0.0100098" y1="33.3212" x2="99.99" y2="33.3212" gradientUnits="userSpaceOnUse">
<stop stop-color="#11C2FE"/>
<stop offset="1" stop-color="#2395FF"/>
</linearGradient>
<linearGradient id="paint1_linear_16_2427" x1="19.4875" y1="44.1065" x2="20.4875" y2="44.1065" gradientUnits="userSpaceOnUse">
<stop stop-color="#11C2FE"/>
<stop offset="1" stop-color="#2395FF"/>
</linearGradient>
<linearGradient id="paint2_linear_16_2427" x1="15.0901" y1="40.6346" x2="23.8846" y2="40.6346" gradientUnits="userSpaceOnUse">
<stop stop-color="#11C2FE"/>
<stop offset="1" stop-color="#2395FF"/>
</linearGradient>
<linearGradient id="paint3_linear_16_2427" x1="15.0901" y1="47.438" x2="23.8846" y2="47.438" gradientUnits="userSpaceOnUse">
<stop stop-color="#11C2FE"/>
<stop offset="1" stop-color="#2395FF"/>
</linearGradient>
<linearGradient id="paint4_linear_16_2427" x1="31.4192" y1="44.1065" x2="32.4192" y2="44.1065" gradientUnits="userSpaceOnUse">
<stop stop-color="#11C2FE"/>
<stop offset="1" stop-color="#2395FF"/>
</linearGradient>
<linearGradient id="paint5_linear_16_2427" x1="27.0217" y1="40.6346" x2="35.8171" y2="40.6346" gradientUnits="userSpaceOnUse">
<stop stop-color="#11C2FE"/>
<stop offset="1" stop-color="#2395FF"/>
</linearGradient>
<linearGradient id="paint6_linear_16_2427" x1="27.0217" y1="47.438" x2="35.8171" y2="47.438" gradientUnits="userSpaceOnUse">
<stop stop-color="#11C2FE"/>
<stop offset="1" stop-color="#2395FF"/>
</linearGradient>
<linearGradient id="paint7_linear_16_2427" x1="20.9998" y1="22.8773" x2="29.9921" y2="22.8773" gradientUnits="userSpaceOnUse">
<stop stop-color="#11C2FE"/>
<stop offset="1" stop-color="#2395FF"/>
</linearGradient>
<linearGradient id="paint8_linear_16_2427" x1="25.4966" y1="22.3773" x2="26.4966" y2="22.3773" gradientUnits="userSpaceOnUse">
<stop stop-color="#11C2FE"/>
<stop offset="1" stop-color="#2395FF"/>
</linearGradient>
<linearGradient id="paint9_linear_16_2427" x1="70.074" y1="22.8773" x2="79.0656" y2="22.8773" gradientUnits="userSpaceOnUse">
<stop stop-color="#11C2FE"/>
<stop offset="1" stop-color="#2395FF"/>
</linearGradient>
<linearGradient id="paint10_linear_16_2427" x1="74.5698" y1="22.3773" x2="75.5698" y2="22.3773" gradientUnits="userSpaceOnUse">
<stop stop-color="#11C2FE"/>
<stop offset="1" stop-color="#2395FF"/>
</linearGradient>
<linearGradient id="paint11_linear_16_2427" x1="53.8906" y1="46.7242" x2="55.5823" y2="46.7242" gradientUnits="userSpaceOnUse">
<stop stop-color="#11C2FE"/>
<stop offset="1" stop-color="#2395FF"/>
</linearGradient>
<linearGradient id="paint12_linear_16_2427" x1="68.9775" y1="44.1065" x2="69.9775" y2="44.1065" gradientUnits="userSpaceOnUse">
<stop stop-color="#11C2FE"/>
<stop offset="1" stop-color="#2395FF"/>
</linearGradient>
<linearGradient id="paint13_linear_16_2427" x1="64.5801" y1="40.6346" x2="73.3754" y2="40.6346" gradientUnits="userSpaceOnUse">
<stop stop-color="#11C2FE"/>
<stop offset="1" stop-color="#2395FF"/>
</linearGradient>
<linearGradient id="paint14_linear_16_2427" x1="64.5801" y1="47.438" x2="73.3754" y2="47.438" gradientUnits="userSpaceOnUse">
<stop stop-color="#11C2FE"/>
<stop offset="1" stop-color="#2395FF"/>
</linearGradient>
<linearGradient id="paint15_linear_16_2427" x1="80.9089" y1="44.1065" x2="81.9089" y2="44.1065" gradientUnits="userSpaceOnUse">
<stop stop-color="#11C2FE"/>
<stop offset="1" stop-color="#2395FF"/>
</linearGradient>
<linearGradient id="paint16_linear_16_2427" x1="76.5115" y1="40.6346" x2="85.3068" y2="40.6346" gradientUnits="userSpaceOnUse">
<stop stop-color="#11C2FE"/>
<stop offset="1" stop-color="#2395FF"/>
</linearGradient>
<linearGradient id="paint17_linear_16_2427" x1="76.5115" y1="47.438" x2="85.3068" y2="47.438" gradientUnits="userSpaceOnUse">
<stop stop-color="#11C2FE"/>
<stop offset="1" stop-color="#2395FF"/>
</linearGradient>
</defs>
</svg>
