<svg width="79" height="75" viewBox="0 0 79 75" fill="none" xmlns="http://www.w3.org/2000/svg">
<path d="M71.2228 52.0136V66.9075H75.3081V74.51H3.23986V66.9075H7.41312V52.0001L3.09106 53.779L0 46.2711L22.7331 36.9168V22.1244L20.4808 23.7748L15.6853 17.2206L39.2165 0L62.9371 17.2139L58.1754 23.7815L55.9096 22.1379V36.998L78.6224 46.2644L75.5584 53.779L71.2228 52.0136Z" fill="url(#paint0_linear_16_2324)"/>
<path d="M2.87598 54.2308L39.1617 39.2957L75.7613 54.2308" stroke="white" stroke-width="2" stroke-miterlimit="10"/>
<path d="M19.3533 23.7544L39.2328 9.20282L59.284 23.7544" stroke="white" stroke-width="2" stroke-miterlimit="10"/>
<path d="M43.9734 27.0573V35.1589H34.5745V27.0573C34.5745 24.462 36.6787 22.3578 39.2739 22.3578C41.8692 22.3578 43.9734 24.4613 43.9734 27.0573Z" fill="white"/>
<path d="M39.2739 35.7562V21.7598" stroke="url(#paint1_linear_16_2324)" stroke-width="2" stroke-miterlimit="10"/>
<path d="M34.1362 28.7583H44.4118" stroke="url(#paint2_linear_16_2324)" stroke-width="2" stroke-miterlimit="10"/>
<path d="M11.512 65.2761V58.233C11.512 55.9766 13.3409 54.1476 15.5973 54.1476C17.8537 54.1476 19.6826 55.9766 19.6826 58.233V65.2761H11.512Z" fill="white"/>
<path d="M15.5974 53.6274V65.7955" stroke="url(#paint3_linear_16_2324)" stroke-width="2" stroke-miterlimit="10"/>
<path d="M20.0649 59.7115H11.1306" stroke="url(#paint4_linear_16_2324)" stroke-width="2" stroke-miterlimit="10"/>
<path d="M59.0405 65.2761V58.233C59.0405 55.9766 60.8695 54.1476 63.1259 54.1476C65.3823 54.1476 67.2112 55.9766 67.2112 58.233V65.2761H59.0405Z" fill="white"/>
<path d="M63.1265 53.6274V65.7955" stroke="url(#paint5_linear_16_2324)" stroke-width="2" stroke-miterlimit="10"/>
<path d="M67.5935 59.7115H58.6592" stroke="url(#paint6_linear_16_2324)" stroke-width="2" stroke-miterlimit="10"/>
<path d="M43.6461 49.6929H34.9019V66.9075H43.6461V49.6929Z" fill="white"/>
<path d="M42.9988 57.7865C42.9988 58.2275 42.6417 58.5847 42.2007 58.5847C41.7597 58.5847 41.4026 58.2268 41.4026 57.7865C41.4026 57.3455 41.7597 56.9884 42.2007 56.9884C42.6417 56.9884 42.9988 57.3455 42.9988 57.7865Z" fill="url(#paint7_linear_16_2324)"/>
<defs>
<linearGradient id="paint0_linear_16_2324" x1="0" y1="37.255" x2="78.6224" y2="37.255" gradientUnits="userSpaceOnUse">
<stop stop-color="#11C2FE"/>
<stop offset="1" stop-color="#2395FF"/>
</linearGradient>
<linearGradient id="paint1_linear_16_2324" x1="39.2739" y1="28.758" x2="40.2739" y2="28.758" gradientUnits="userSpaceOnUse">
<stop stop-color="#11C2FE"/>
<stop offset="1" stop-color="#2395FF"/>
</linearGradient>
<linearGradient id="paint2_linear_16_2324" x1="34.1362" y1="29.2583" x2="44.4118" y2="29.2583" gradientUnits="userSpaceOnUse">
<stop stop-color="#11C2FE"/>
<stop offset="1" stop-color="#2395FF"/>
</linearGradient>
<linearGradient id="paint3_linear_16_2324" x1="15.5974" y1="59.7115" x2="16.5974" y2="59.7115" gradientUnits="userSpaceOnUse">
<stop stop-color="#11C2FE"/>
<stop offset="1" stop-color="#2395FF"/>
</linearGradient>
<linearGradient id="paint4_linear_16_2324" x1="11.1306" y1="60.2115" x2="20.0649" y2="60.2115" gradientUnits="userSpaceOnUse">
<stop stop-color="#11C2FE"/>
<stop offset="1" stop-color="#2395FF"/>
</linearGradient>
<linearGradient id="paint5_linear_16_2324" x1="63.1265" y1="59.7115" x2="64.1265" y2="59.7115" gradientUnits="userSpaceOnUse">
<stop stop-color="#11C2FE"/>
<stop offset="1" stop-color="#2395FF"/>
</linearGradient>
<linearGradient id="paint6_linear_16_2324" x1="58.6592" y1="60.2115" x2="67.5935" y2="60.2115" gradientUnits="userSpaceOnUse">
<stop stop-color="#11C2FE"/>
<stop offset="1" stop-color="#2395FF"/>
</linearGradient>
<linearGradient id="paint7_linear_16_2324" x1="41.4026" y1="57.7865" x2="42.9988" y2="57.7865" gradientUnits="userSpaceOnUse">
<stop stop-color="#11C2FE"/>
<stop offset="1" stop-color="#2395FF"/>
</linearGradient>
</defs>
</svg>
