<svg width="79" height="75" viewBox="0 0 79 75" fill="none" xmlns="http://www.w3.org/2000/svg">
<path d="M68.3786 40.3579L71.9669 43.7932L78.0722 37.4156L38.9938 0L0 37.3339L6.10607 43.7115L9.69364 40.2762V68.2388H5.61532V74.982H72.2693V68.2388H68.3786V40.3579Z" fill="url(#paint0_linear_16_2291)"/>
<path d="M62.7708 40.6044H47.4875V69.2526H62.7708V40.6044Z" fill="white"/>
<path d="M40.9211 42.5159H16.1819V60.6803H40.9211V42.5159Z" fill="white"/>
<path d="M15.0266 51.5981H42.0761" stroke="url(#paint1_linear_16_2291)" stroke-width="2" stroke-miterlimit="10"/>
<path d="M28.5515 41.6676V61.5279" stroke="url(#paint2_linear_16_2291)" stroke-width="2" stroke-miterlimit="10"/>
<path d="M2.95923 47.249L38.8996 12.8383L74.9254 47.3307" stroke="white" stroke-width="2" stroke-miterlimit="10"/>
<path d="M49.5505 55.9972C50.1405 55.9972 50.6188 55.5189 50.6188 54.9289C50.6188 54.3389 50.1405 53.8605 49.5505 53.8605C48.9605 53.8605 48.4822 54.3389 48.4822 54.9289C48.4822 55.5189 48.9605 55.9972 49.5505 55.9972Z" fill="url(#paint3_linear_16_2291)"/>
<defs>
<linearGradient id="paint0_linear_16_2291" x1="0" y1="37.491" x2="78.0722" y2="37.491" gradientUnits="userSpaceOnUse">
<stop stop-color="#11C2FE"/>
<stop offset="1" stop-color="#2395FF"/>
</linearGradient>
<linearGradient id="paint1_linear_16_2291" x1="15.0266" y1="52.0981" x2="42.0761" y2="52.0981" gradientUnits="userSpaceOnUse">
<stop stop-color="#11C2FE"/>
<stop offset="1" stop-color="#2395FF"/>
</linearGradient>
<linearGradient id="paint2_linear_16_2291" x1="28.5515" y1="51.5978" x2="29.5515" y2="51.5978" gradientUnits="userSpaceOnUse">
<stop stop-color="#11C2FE"/>
<stop offset="1" stop-color="#2395FF"/>
</linearGradient>
<linearGradient id="paint3_linear_16_2291" x1="48.4822" y1="54.9289" x2="50.6188" y2="54.9289" gradientUnits="userSpaceOnUse">
<stop stop-color="#11C2FE"/>
<stop offset="1" stop-color="#2395FF"/>
</linearGradient>
</defs>
</svg>
