<svg width="132" height="52" viewBox="0 0 132 52" fill="none" xmlns="http://www.w3.org/2000/svg">
<path d="M23.78 27.8C25.84 27.8 27.24 29.02 27.24 31.34V38H23.84V32.28C23.84 30.86 23.26 30.38 22.42 30.38C21.44 30.38 20.62 31.06 20.62 32.74V38H17.22V23.76H20.62V29.8C21.22 28.48 22.32 27.8 23.78 27.8ZM34.4223 27.8C37.7623 27.8 39.7023 29.72 39.7023 33C39.7023 36.28 37.7623 38.2 34.4223 38.2C31.0823 38.2 29.1423 36.28 29.1423 33C29.1423 29.72 31.0823 27.8 34.4223 27.8ZM34.4223 30.22C33.1623 30.22 32.5423 31.04 32.5423 33C32.5423 34.96 33.1623 35.78 34.4223 35.78C35.6823 35.78 36.3023 34.96 36.3023 33C36.3023 31.04 35.6823 30.22 34.4223 30.22ZM54.6736 27.8C56.6336 27.8 58.1136 29 58.0936 31.34L58.0536 38H54.6936V32.12C54.6936 30.86 54.1536 30.4 53.3336 30.4C52.3136 30.4 51.5736 31.16 51.5736 32.66V38H48.1736V32.12C48.1736 30.86 47.6136 30.4 46.8136 30.4C45.8736 30.4 45.0536 31.08 45.0536 32.72V38H41.6536V28H44.6936L44.7936 29.92C45.4336 28.52 46.6336 27.8 48.1536 27.8C49.6336 27.8 50.8336 28.48 51.3336 29.82C51.9736 28.5 53.2136 27.8 54.6736 27.8ZM70.2217 32.86C70.2217 33.2 70.1817 33.72 70.1217 33.98H63.3017C63.5217 35.28 64.2617 35.8 65.4017 35.8C66.4017 35.8 67.0217 35.4 67.2417 34.7L70.0017 35.58C69.4217 37.32 67.7217 38.2 65.4017 38.2C61.9017 38.2 60.0017 36.3 60.0017 33C60.0017 29.7 61.8817 27.8 65.2217 27.8C68.4817 27.8 70.2217 29.7 70.2217 32.86ZM65.2017 30.18C64.1217 30.18 63.4817 30.78 63.3017 32.14H67.0617C66.8817 30.86 66.2617 30.18 65.2017 30.18ZM78.5423 27.8C81.1023 27.8 82.6623 29.72 82.6623 33.04C82.6623 36.3 81.1423 38.2 78.5423 38.2C76.9023 38.2 75.7423 37.26 75.2023 35.88L75.1023 38H72.1223V23.76H75.5223V29.66C76.0823 28.54 77.1023 27.8 78.5423 27.8ZM77.3623 35.7C78.5223 35.7 79.2423 34.88 79.2423 33C79.2423 31.12 78.5223 30.3 77.3623 30.3C76.1823 30.3 75.5223 31.24 75.5223 32.9V33.1C75.5223 34.82 76.2223 35.7 77.3623 35.7ZM94.4209 32.86C94.4209 33.2 94.3809 33.72 94.3209 33.98H87.5009C87.7209 35.28 88.4609 35.8 89.6009 35.8C90.6009 35.8 91.2209 35.4 91.4409 34.7L94.2009 35.58C93.6209 37.32 91.9209 38.2 89.6009 38.2C86.1009 38.2 84.2009 36.3 84.2009 33C84.2009 29.7 86.0809 27.8 89.4209 27.8C92.6809 27.8 94.4209 29.7 94.4209 32.86ZM89.4009 30.18C88.3209 30.18 87.6809 30.78 87.5009 32.14H91.2609C91.0809 30.86 90.4609 30.18 89.4009 30.18ZM110.724 35.34L111.064 37.44C110.404 37.9 109.284 38.2 108.244 38.2C105.964 38.2 104.564 37.32 104.564 35V30.42H100.364V34.44C100.364 35.4 100.684 35.78 101.504 35.78C102.104 35.78 102.464 35.62 102.844 35.32L103.224 37.44C102.604 37.9 101.504 38.2 100.504 38.2C98.3244 38.2 96.9844 37.32 96.9644 35V30.42H95.2444V28H96.9644V25.76L100.364 24.82V28H104.564V25.76L107.964 24.82V28H110.944V30.42H107.964V34.44C107.964 35.4 108.444 35.78 109.284 35.78C109.884 35.78 110.324 35.62 110.724 35.34ZM122.233 32.86C122.233 33.2 122.193 33.72 122.133 33.98H115.313C115.533 35.28 116.273 35.8 117.413 35.8C118.413 35.8 119.033 35.4 119.253 34.7L122.013 35.58C121.433 37.32 119.733 38.2 117.413 38.2C113.913 38.2 112.013 36.3 112.013 33C112.013 29.7 113.893 27.8 117.233 27.8C120.493 27.8 122.233 29.7 122.233 32.86ZM117.213 30.18C116.133 30.18 115.493 30.78 115.313 32.14H119.073C118.893 30.86 118.273 30.18 117.213 30.18ZM130.314 27.8C130.814 27.8 131.174 27.9 131.394 28.02L131.034 30.9C130.774 30.74 130.294 30.6 129.774 30.6C128.574 30.6 127.534 31.38 127.534 32.96V38H124.134V28H127.134L127.274 30.14C127.774 28.66 128.754 27.8 130.314 27.8Z" fill="#1A366E"/>
<path d="M94.9246 46.43H98.0246V50H96.8246L96.7746 49.23C96.4146 49.78 95.7946 50.1 94.8846 50.1C93.1046 50.1 91.8146 48.9 91.8146 46.71C91.8146 44.58 93.0746 43.3 95.1046 43.3C96.6046 43.3 97.4846 43.8 98.0146 44.99L96.4246 45.62C96.2546 44.95 95.7846 44.65 95.1546 44.65C94.1546 44.65 93.5846 45.34 93.5846 46.7C93.5846 48.11 94.1346 48.78 95.2046 48.78C95.9846 48.78 96.5646 48.43 96.5646 47.69V47.59H94.9246V46.43ZM107.511 43.4V47.31C107.511 49.17 106.511 50.1 104.561 50.1C102.621 50.1 101.611 49.17 101.611 47.31V43.4H103.341V47.34C103.341 48.29 103.741 48.75 104.561 48.75C105.391 48.75 105.801 48.29 105.801 47.34V43.4H107.511ZM112.98 43.4V50H111.26V43.4H112.98ZM119.644 43.4C121.714 43.4 122.844 44.59 122.844 46.7C122.844 48.81 121.714 50 119.644 50H116.844V43.4H119.644ZM119.474 48.7C120.594 48.7 121.084 48.02 121.084 46.7C121.084 45.38 120.594 44.7 119.474 44.7H118.564V48.7H119.474ZM128.141 48.67H131.691V50H126.421V43.4H131.561V44.73H128.141V46.07H130.861V47.32H128.141V48.67Z" fill="#1A366E"/>
<g clip-path="url(#clip0_6_1879)">
<mask id="mask0_6_1879" style="mask-type:luminance" maskUnits="userSpaceOnUse" x="0" y="1" width="128" height="48">
<path d="M127.542 1.82104H0.509033V48.821H127.542V1.82104Z" fill="white"/>
</mask>
<g mask="url(#mask0_6_1879)">
<path d="M147.897 46.3394C148.629 46.3394 149.224 46.9346 149.224 47.6665C149.224 48.401 148.629 48.9962 147.897 48.9962H11.5226C10.21 48.9962 9.01559 48.4581 8.15253 47.5948C7.28941 46.7316 6.75128 45.5372 6.75128 44.2247V27.448H4.38565C3.46135 27.448 2.69955 27.2058 2.10655 26.8024C1.44819 26.3591 1.01344 25.7301 0.794013 25.0148L0.791889 25.0174C0.589312 24.3546 0.582943 23.622 0.766543 22.9154C0.981793 22.0694 1.47141 21.2439 2.21212 20.6043L22.5446 3.07877C23.5174 2.23887 24.7794 1.82104 26.0286 1.82104C27.2758 1.82104 28.5377 2.23887 29.5105 3.07877L43.1744 14.8966C43.7277 15.375 43.7888 16.211 43.3097 16.7638C42.8326 17.3165 41.442 16.8991 41.442 16.8991L27.778 5.08138C27.3117 4.67835 26.6765 4.47784 26.0286 4.47784C25.3808 4.47784 24.7435 4.67835 24.2771 5.08138L3.9446 22.6095C3.62385 22.8835 3.41703 23.2252 3.32844 23.5676C3.2672 23.8078 3.26514 24.0401 3.3242 24.2385V24.2424C3.36852 24.3864 3.45717 24.5125 3.59007 24.6034C3.76312 24.7195 4.02482 24.7912 4.38565 24.7912H8.08074C8.81301 24.7912 9.40814 25.3864 9.40814 26.1189V44.2247C9.40814 44.8053 9.64654 45.3348 10.0307 45.717C10.4146 46.1006 10.9422 46.3394 11.5226 46.3394H147.897Z" fill="#F7911D"/>
</g>
</g>
<defs>
<clipPath id="clip0_6_1879">
<rect width="88" height="47" fill="white" transform="translate(0 2)"/>
</clipPath>
</defs>
</svg>
