<svg width="20" height="20" viewBox="0 0 20 20" fill="none" xmlns="http://www.w3.org/2000/svg">
<path d="M14.8405 8.08797C15.1652 7.76183 15.1641 7.2342 14.838 6.90947C14.5118 6.58473 13.9841 6.58587 13.6594 6.91201L8.85123 11.741L6.08507 9.01332C5.75736 8.69024 5.22974 8.69391 4.90659 9.02157C4.58344 9.34932 4.58714 9.87699 4.91485 10.2001L8.27149 13.51C8.59806 13.8321 9.12348 13.8297 9.44715 13.5047L14.8405 8.08797Z" fill="#646464"/>
<path fill-rule="evenodd" clip-rule="evenodd" d="M10 0.833328C4.93743 0.833328 0.833374 4.93739 0.833374 10C0.833374 15.0626 4.93743 19.1667 10 19.1667C15.0626 19.1667 19.1667 15.0626 19.1667 10C19.1667 4.93739 15.0626 0.833328 10 0.833328ZM2.50004 10C2.50004 5.85786 5.85791 2.49999 10 2.49999C14.1422 2.49999 17.5 5.85786 17.5 10C17.5 14.1422 14.1422 17.5 10 17.5C5.85791 17.5 2.50004 14.1422 2.50004 10Z" fill="#646464"/>
</svg>
